<?xml version="1.0" encoding="utf-8"?>
<!-- Generator: Adobe Illustrator 26.0.1, SVG Export Plug-In . SVG Version: 6.00 Build 0)  -->
<svg version="1.1" id="Layer_1" xmlns="http://www.w3.org/2000/svg" xmlns:xlink="http://www.w3.org/1999/xlink" x="0px" y="0px"
	 viewBox="0 0 173.93 41.82" style="enable-background:new 0 0 173.93 41.82;" xml:space="preserve">
<style type="text/css">
	.st0{fill:#E34847;}
	.st1{fill:#F4B954;}
	.st2{fill:#7BC144;}
</style>
<g>
	<path class="st0" d="M37.28,0C27.23,0,23.67,9.66,23.67,9.66S20.11,0,10.05,0C4.78,0,0,2.86,0,10.79
		c0,9.58,16.31,25.26,21.85,30.32c1.03,0.94,2.61,0.94,3.64,0c5.54-5.06,21.85-20.74,21.85-30.32C47.34,2.86,42.55,0,37.28,0z"/>
	<path class="st1" d="M100.58,0C90.52,0,86.96,9.66,86.96,9.66S83.4,0,73.35,0c-5.27,0-10.05,2.86-10.05,10.79
		c0,9.58,16.31,25.26,21.85,30.32c1.03,0.94,2.61,0.94,3.64,0c5.54-5.06,21.85-20.74,21.85-30.32C110.63,2.86,105.85,0,100.58,0z"/>
	<path class="st2" d="M163.87,0c-10.05,0-13.62,9.66-13.62,9.66S146.7,0,136.64,0c-5.27,0-10.05,2.86-10.05,10.79
		c0,9.58,16.31,25.26,21.85,30.32c1.03,0.94,2.61,0.94,3.64,0c5.54-5.06,21.85-20.74,21.85-30.32C173.93,2.86,169.14,0,163.87,0z"/>
</g>
</svg>
